<svg version="1.1" id="Layer_1" xmlns="http://www.w3.org/2000/svg" xmlns:xlink="http://www.w3.org/1999/xlink" x="0px" y="0px" width="52px" height="62px" viewBox="11.061 9.168 52 62" enable-background="new 11.061 9.168 52 62" xml:space="preserve">
<g>
	<g>
		<path fill="#FFFFFF" d="M36.946,9.756c0.318,0.163,0.633,0.451,0.957,0.466c0.66,0.031,1.265,0.142,1.114,0.918    c-0.069,0.349-0.626,0.604-1.145,1.064c0.037,0.035,0.282,0.455,0.55,0.469c0.896,0.045,1.851,0.926,2.896-0.154    c-0.376-0.109-0.699-0.104-0.784-0.246c-0.199-0.323-0.283-0.719-0.413-1.083c0.778-0.236,1.555-0.636,2.335-0.647    c0.441-0.007,0.935,0.578,1.321,0.977c0.148,0.154,0.196,0.677,0.08,0.771c-0.314,0.256-0.743,0.369-1.32,0.631    c0.154,0.162,0.358,0.571,0.595,0.591c0.953,0.083,1.96,0.942,2.992-0.164c-0.297-0.073-0.553-0.06-0.651-0.179    c-0.224-0.265-0.511-0.605-0.493-0.898c0.01-0.191,0.516-0.51,0.791-0.501c0.729,0.025,1.459,0.199,2.26,0.325    c-0.607,0.941-1.225,1.896-1.842,2.854c1.313,0.725,1.563,1.578,0.659,2.745c-0.7,0.903-0.888,1.816-0.791,2.899    c0.147,1.697-0.271,3.295-0.987,4.828c-0.626,1.34-1.282,2.671-1.83,4.043c-0.471,1.18-0.807,2.412-1.24,3.73    c0.016,0.002-0.252-0.03-0.591-0.072c0,0.871-0.026,1.685,0.007,2.498c0.083,2.092,0.195,4.187,0.289,6.281    c0.034,0.75,0.311,1.121,1.111,1.437c1.357,0.535,2.596,1.382,3.855,2.153c2.057,1.26,4.03,2.678,6.16,3.798    c0.845,0.444,2.062,0.507,3.029,0.323c2.183-0.414,3.037-2.556,1.832-4.43c-0.575-0.901-1.336-1.703-2.103-2.462    c-1.407-1.405-2.938-2.688-4.312-4.121c-2.795-2.913-2.76-5.66,0.1-8.526c1.991-1.997,4.085-3.887,6.098-5.863    c1.722-1.686,3.059-3.592,2.952-6.153c-0.114-2.793-3.117-4.51-5.486-3.114c-0.493,0.289-0.889,0.829-1.181,1.34    c-0.354,0.627-0.321,1.238,0.512,1.568c1.369,0.549,1.835,1.632,1.731,3.038c-0.102,1.353-0.224,2.7-1.104,4.211    c-0.238-1.474,0.162-2.835-1.093-3.788c0.974,2.91-0.876,4.146-2.819,5.443c-1.067,0.712-1.934,1.725-2.896,2.599    c-0.147,0.134-0.314,0.246-0.67,0.518c0.702-3.372,3.483-5.554,3.819-8.883c-0.624,0.535-1.246,1.07-1.869,1.604    c-0.106-0.078-0.209-0.156-0.315-0.235c0.685-1.144,1.383-2.28,2.049-3.437c0.244-0.427,0.535-0.879,0.606-1.35    c0.469-3.117,2.34-4.729,5.377-4.564c2.769,0.151,4.947,2.459,5.007,5.293c0.037,1.805-0.57,3.423-1.577,4.871    c-1.111,1.601-2.341,3.121-3.507,4.687c-0.358,0.481-0.675,0.997-1.113,1.649c1.879,0,3.562,0,5.424,0    c-0.317,0.247-0.565,0.494-0.858,0.655c-1.678,0.923-3.371,1.815-5.046,2.741c-0.29,0.161-0.518,0.434-0.823,0.696    c2.183,0,4.166,0,6.251,0c-0.186,0.175-0.396,0.462-0.682,0.624c-1.348,0.77-2.722,1.496-4.076,2.258    c-0.312,0.174-0.588,0.413-0.878,0.623c0.037,0.082,0.071,0.164,0.108,0.248c1.735,0,3.473,0,5.21,0    c0.052,0.055,0.104,0.109,0.158,0.164c-1.386,0.814-2.771,1.629-4.306,2.533c0.816,1.218,1.605,2.4,2.398,3.586    c0.698,1.045,1.16,2.18,1.015,3.457c-0.347,3.119-3.078,4.946-6.339,4.188c-3.494-0.816-6.362-2.861-9.223-4.894    c-0.614-0.438-1.137-1.018-1.771-1.426c-0.311-0.202-0.777-0.165-1.087-0.22c1.668,1.798,3.255,3.566,4.909,5.266    c0.848,0.873,1.781,1.682,2.753,2.414c0.525,0.396,1.203,0.621,1.843,0.825c1.151,0.364,2.411,1.925,2.517,3.126    c0.036,0.412,0.178,0.842,0.378,1.205c1.584,2.874,3.197,5.732,4.793,8.6c0.03,0.054-0.005,0.141-0.024,0.434    c-0.619-0.113-1.218-0.268-1.826-0.324c-0.596-0.056-1.208-0.049-1.806-0.004c-1.122,0.08-1.729,0.62-1.725,1.844    c0.001,0.348-0.458,1.002-0.699,0.999c-1.033-0.011-1.406,0.563-1.575,1.444c-0.105,0.004-0.212,0.007-0.316,0.009    c-0.063-0.609-0.256-1.241-0.161-1.825c0.102-0.621,0.472-1.199,0.527-1.959c-0.311,0.298-0.622,0.599-0.937,0.893    c-0.56,0.521-1.091,0.775-1.938,0.416c-0.436-0.184-1.125,0.236-1.777,0.404c0.419-2.094,1.847-2.974,4.023-2.974    c-0.021-0.103-0.041-0.204-0.063-0.308c-0.227-0.09-0.472-0.147-0.672-0.275c-0.38-0.243-0.729-0.535-1.101-0.793    c-0.42-0.293-0.848-0.572-1.262-0.849c0.521-0.614,2.151-0.886,3.134-0.366c0.599,0.316,1.202,0.697,1.67,1.18    c0.558,0.575,1.062,0.658,1.88,0.119c-0.836-1.132-1.639-2.273-2.499-3.367c-0.446-0.566-1.093-0.985-1.472-1.584    c-1.638-2.572-4.208-2.58-6.799-2.6c-1.408-0.014-2.816-0.039-4.219-0.117c-0.333-0.018-0.674-0.234-0.973-0.42    c-0.275-0.167-0.492-0.424-0.745-0.63c-2.035-1.646-3.025-3.511-1.839-6.208c0.672-1.532,0.913-3.26,1.299-4.91    c0.311-1.338,0.135-1.807-0.595-2.225c-0.582,2.362-0.951,4.834-1.819,7.117c-0.979,2.576-0.539,4.556,1.674,6.197    c-0.424,0.443-0.729,0.737-1.006,1.055c-0.826,0.953-1.397,1.984-1.255,3.332c0.125,1.184-0.792,2.183-1.959,2.416    c-0.539,0.107-1.101,0.32-1.546,0.631c-1.688,1.18-3.347,2.404-4.992,3.646c-0.829,0.624-1.607,1.315-2.391,1.962    c-0.014-0.062-0.113-0.416-0.172-0.775c-0.118-0.719-0.626-0.878-1.248-0.961c-0.701-0.094-0.812,0.347-0.965,0.875    c-0.396,1.355-1.734,2.238-3.235,2.111c0.671-0.561,1.252-1.087,0.587-1.996c-0.114-0.156,0.193-0.705,0.407-0.997    c0.213-0.292,0.554-0.491,1.071-0.929c-0.57,0-0.837-0.035-1.088,0.006c-0.896,0.158-1.655,0.18-2.221-0.807    c-0.161-0.279-1.039-0.147-1.588-0.205c0.053-0.624,0.922-1.402,2.203-1.402c0.909,0,1.82,0.424,3.023,0.733    c-0.388-0.518-0.545-0.794-0.766-1.007c-0.578-0.551-0.864-1.037-0.305-1.86c0.205-0.302-0.181-1.007-0.357-1.797    c0.579,0.341,1.296,0.528,1.591,0.989c0.511,0.79,0.768,1.746,1.114,2.64c0.156,0.401,0.243,1.157,0.416,1.173    c0.592,0.057,1.373,0.055,1.781-0.285c1.128-0.949,2.108-2.074,3.141-3.135c0.694-0.717,1.379-1.446,2.134-2.238    c-1.163-1.314-0.565-3.033-0.624-4.65c-0.028-0.857,0.155-1.725,0.22-2.59c0.115-1.582,0.807-2.771,2.168-3.655    c1.452-0.942,2.829-2.006,4.202-3.063c0.211-0.16,0.393-0.637,0.307-0.861c-0.5-1.334-1.014-2.671-1.665-3.932    c-0.277-0.539-0.322-0.857,0.031-1.34c1.03-1.395,1.999-2.836,3.024-4.236c0.381-0.521,0.435-0.887-0.371-1.195    c-3.186,4.486-6.392,9.003-9.744,13.727c-0.227-0.736-0.309-1.232-0.534-1.654c-0.157-0.301-0.476-0.633-0.777-0.7    c-0.217-0.048-0.584,0.269-0.784,0.508c-0.524,0.624-0.436,1.722-1.529,1.938c-0.096,0.02-0.125,0.527-0.131,0.807    c-0.015,1.041-0.005,2.083-0.005,3.17c-0.518,0-0.897,0-1.405,0c0-1.338,0-2.613,0-4.195c-0.473,0.559-0.735,0.871-1.099,1.302    c-0.195-1.128,0.188-1.985,0.735-2.777c0.639-0.929,0.574-1.61-0.279-2.267c-0.109-0.086-0.236-0.202-0.271-0.326    c-0.284-1.062-1.044-1.346-2.219-1.162c0.885-1.146,2.02-1.006,3.1-1.154c0-4.348,0-8.675,0-12.76    c-0.673-0.097-1.298-0.309-1.89-0.234c-0.478,0.061-0.912,0.465-1.577,0.834c0.273-2.234,1.751-3.168,3.67-3.727    c-0.049-0.104-0.097-0.207-0.145-0.312c-0.28-0.06-0.576-0.087-0.84-0.189c-0.317-0.124-0.807-0.254-0.88-0.486    c-0.303-0.994-0.963-1.439-1.98-1.57c1.103-0.885,2.33-0.621,3.619-0.447c0-1.279,0-2.521,0-3.832    c-0.939-0.229-1.71,0.049-2.4,0.64c-1.344,1.149-2.683,2.302-3.961,3.401c-1.324-1.923-2.504-7.371-2.195-11.092    c2.681,1.666,4.915,4.283,8.517,3.869c0.066-0.414,0.114-0.73,0.179-1.134c0.332-0.022,0.672-0.046,0.762-0.053    c0.473,0.546,0.797,0.944,1.146,1.317c0.403,0.428,0.163,2.638-0.311,3.038c-0.169,0.145-0.351,0.389-0.357,0.591    c-0.031,1.23-0.031,2.459,0.002,3.689c0.005,0.229,0.204,0.453,0.416,0.893c0.393-1.08,0.285-2.102,1.406-2.521    c0.298-0.112,0.317-0.967,0.529-1.707c1.199,2.084,0.748,3.765-0.766,5.217c0.097,0.181,0.121,0.291,0.163,0.299    c1.948,0.325,3.099,2.104,4.899,2.719c0.104,0.037,0.159,0.518,0.08,0.734c-0.324,0.914-0.706,1.807-1.096,2.771    c-1.75-0.919-2.637-2.999-4.642-3.233c-0.158-0.45-0.309-0.871-0.458-1.293c-0.122,0.029-0.245,0.059-0.368,0.088    c-0.028,0.303-0.083,0.607-0.083,0.91c-0.007,4.414,0.01,8.826-0.02,13.238c-0.003,0.785,0.264,1.285,1.197,1.706    c-0.154-0.513-0.224-0.841-0.349-1.145c-0.264-0.63-0.315-1.135,0.135-1.798c0.277-0.405,0.003-1.187-0.023-1.783    c1.049,0.314,1.862,1.74,1.81,3.256c-0.018,0.506-0.095,1.01-0.082,1.514c0.003,0.211,0.17,0.417,0.264,0.625    c0.196-0.111,0.484-0.176,0.568-0.343c1.366-2.7,2.707-5.411,4.141-8.296c-0.783-0.068-1.401-0.121-2.147-0.186    c1.017-2.572,1.812-5.172,3.041-7.545c1.471-2.838,4.291-3.817,7.275-4.299c0.878-0.141,1.361-0.566,1.379-1.557    c-1.162-0.159-2.335-0.323-3.617-0.5c0.581-0.752,0.418-1.354-0.074-2.051c-0.801-1.125-0.778-1.713,0.264-2.613    c1.165-1.006,1.533-2.061,0.931-3.487c-0.236-0.556-0.333-1.172-0.493-1.76C36.513,9.756,36.731,9.756,36.946,9.756z     M45.333,15.044c-2.479-0.428-4.734-0.922-7.018-1.137c-0.556-0.052-1.402,0.697-1.744,1.291    c-0.386,0.671,0.424,0.443,0.785,0.598c1.67,0.715,1.789,0.705,2.628-0.902c1.114,0.258,2.294,0.443,3.41,0.82    C44.183,15.979,44.681,15.794,45.333,15.044z M36.272,25.052c-3.155,0.125-4.977,1.793-5.348,4.635    c0.703,0.299,0.97-0.159,1.188-0.688c0.624-1.505,1.365-2.849,3.263-3.01C35.647,25.968,35.882,25.478,36.272,25.052z     M36.378,17.771c0.403,0.488,0.598,0.961,0.874,1.016c0.971,0.187,1.971,0.23,2.979,0.33    C40.136,17.929,39.481,17.69,36.378,17.771z M45.907,17.556c0.119,0.002,0.24,0.003,0.357,0.004    c0.046-0.486,0.092-0.975,0.135-1.462c-0.4,0.053-0.803,0.106-1.358,0.179C45.437,16.858,45.671,17.208,45.907,17.556z"/>
		<path fill="#FFFFFF" d="M31.094,16.598c1.019,1.079,2.683,0.417,3.766,1.616C32.662,18.677,30.882,17.966,31.094,16.598z"/>
	</g>
</g>
</svg>